<svg xmlns="http://www.w3.org/2000/svg" width="96.68" height="27.791" viewBox="0 0 96.68 27.791">
  <path id="_AA_" data-name="&lt;AA/&gt;" d="M6.064-10.863,16.084-7.33v4.922L.949-8.824v-4.148l15.135-6.416v4.922Zm28.986,5.59H25.8L24.047,0H18.439l9.527-25.594h4.887L42.434,0H36.826ZM27.229-9.545h6.4l-3.217-9.58ZM59.273-5.273H50.027L48.27,0H42.662l9.527-25.594h4.887L66.656,0H61.049ZM51.451-9.545h6.4l-3.217-9.58ZM70.313,2.2H66.533l9.422-27.791h3.779ZM92.531-10.916,82.318-14.484v-4.887l15.311,6.416v4.131L82.318-2.391v-4.9Z" transform="translate(-0.949 25.594)" fill="#fff"/>
</svg>
